<svg width="20" height="20" viewBox="0 0 20 20" fill="none" xmlns="http://www.w3.org/2000/svg">
<g id="Frame">
<path id="Vector" d="M18.1092 1.89082C17.6989 1.48066 17.1426 1.25024 16.5625 1.25024C15.9824 1.25024 15.4261 1.48066 15.0158 1.89082L14.0517 2.85499L17.145 5.94832L18.1092 4.98415C18.5193 4.57393 18.7497 4.01758 18.7497 3.43749C18.7497 2.85739 18.5193 2.30104 18.1092 1.89082ZM16.2608 6.83249L13.1675 3.73915L3.0425 13.8642C2.52821 14.3782 2.15015 15.0123 1.9425 15.7092L1.27583 17.9467C1.24365 18.0546 1.24124 18.1693 1.26888 18.2785C1.29652 18.3877 1.35318 18.4875 1.43284 18.5671C1.51251 18.6468 1.61224 18.7035 1.72146 18.7311C1.83069 18.7587 1.94536 18.7563 2.05333 18.7242L4.29083 18.0575C4.98769 17.8498 5.6218 17.4718 6.13583 16.9575L16.2608 6.83249Z" fill="white"/>
</g>
</svg>
