<svg width="20" height="20" viewBox="0 0 20 20" fill="none" xmlns="http://www.w3.org/2000/svg">
<g id="Frame">
<path id="Vector" d="M10 12.5C10.663 12.5 11.2989 12.2366 11.7678 11.7678C12.2366 11.2989 12.5 10.663 12.5 10C12.5 9.33696 12.2366 8.70107 11.7678 8.23223C11.2989 7.76339 10.663 7.5 10 7.5C9.33696 7.5 8.70107 7.76339 8.23223 8.23223C7.76339 8.70107 7.5 9.33696 7.5 10C7.5 10.663 7.76339 11.2989 8.23223 11.7678C8.70107 12.2366 9.33696 12.5 10 12.5Z" fill="white"/>
<path id="Vector_2" fill-rule="evenodd" clip-rule="evenodd" d="M1.1025 9.53917C2.3425 5.81333 5.85667 3.125 10.0008 3.125C14.1425 3.125 17.655 5.81083 18.8967 9.53333C18.9967 9.835 18.9967 10.16 18.8967 10.4608C17.6575 14.1867 14.1425 16.875 9.99917 16.875C5.8575 16.875 2.34417 14.1892 1.10333 10.4667C1.00312 10.1656 1.00312 9.84021 1.10333 9.53917H1.1025ZM14.375 10C14.375 11.1603 13.9141 12.2731 13.0936 13.0936C12.2731 13.9141 11.1603 14.375 10 14.375C8.83968 14.375 7.72688 13.9141 6.90641 13.0936C6.08594 12.2731 5.625 11.1603 5.625 10C5.625 8.83968 6.08594 7.72688 6.90641 6.90641C7.72688 6.08594 8.83968 5.625 10 5.625C11.1603 5.625 12.2731 6.08594 13.0936 6.90641C13.9141 7.72688 14.375 8.83968 14.375 10Z" fill="white"/>
</g>
</svg>
